<?xml version="1.0" encoding="UTF-8" standalone="no"?>
<!-- Created with Inkscape (http://www.inkscape.org/) -->

<svg
   width="43.1698mm"
   height="31.656189mm"
   viewBox="0 0 43.1698 31.656189"
   version="1.1"
   id="svg5"
   xml:space="preserve"
   inkscape:version="1.2.1 (9c6d41e410, 2022-07-14)"
   sodipodi:docname="msn.svg"
   xmlns:inkscape="http://www.inkscape.org/namespaces/inkscape"
   xmlns:sodipodi="http://sodipodi.sourceforge.net/DTD/sodipodi-0.dtd"
   xmlns="http://www.w3.org/2000/svg"
   xmlns:svg="http://www.w3.org/2000/svg"><sodipodi:namedview
     id="namedview7"
     pagecolor="#505050"
     bordercolor="#eeeeee"
     borderopacity="1"
     inkscape:showpageshadow="0"
     inkscape:pageopacity="0"
     inkscape:pagecheckerboard="0"
     inkscape:deskcolor="#505050"
     inkscape:document-units="mm"
     showgrid="false"
     inkscape:zoom="0.68506594"
     inkscape:cx="228.44516"
     inkscape:cy="561.9897"
     inkscape:window-width="1920"
     inkscape:window-height="935"
     inkscape:window-x="0"
     inkscape:window-y="32"
     inkscape:window-maximized="1"
     inkscape:current-layer="layer1" /><defs
     id="defs2" /><g
     inkscape:label="Layer 1"
     inkscape:groupmode="layer"
     id="layer1"
     transform="translate(-74.282213,-127.27742)"><path
       d="m 103.06066,143.10545 c -1.84896,0 -3.636862,-0.82556 -5.036102,-2.32383 -1.360711,-1.46138 -2.191685,-3.41024 -2.338291,-5.48587 -0.156239,-2.21411 0.518872,-4.25018 1.901168,-5.73407 1.382261,-1.48389 3.314945,-2.28427 5.473225,-2.28427 2.14315,0 4.08114,0.81477 5.45891,2.29506 1.3913,1.49468 2.06847,3.52715 1.912,5.72239 -0.15005,2.0783 -0.98024,4.02631 -2.33825,5.48583 -1.3958,1.4992 -3.18265,2.32476 -5.03266,2.32476 z m 11.85584,15.82811 H 91.205864 c -0.381319,0.002 -0.757808,-0.0835 -1.100796,-0.24982 -0.343031,-0.1663 -0.643294,-0.40916 -0.877726,-0.70981 -0.248673,-0.32601 -0.420343,-0.70389 -0.502288,-1.10547 -0.08198,-0.40174 -0.07198,-0.81666 0.03095,-1.21387 0.757219,-3.04065 2.633177,-5.56237 5.424764,-7.29171 2.477639,-1.53425 5.631551,-2.37964 8.881612,-2.37964 3.31402,0 6.38525,0.80939 8.87723,2.34267 2.79781,1.72048 4.67644,4.25652 5.43018,7.33401 0.0998,0.39752 0.10867,0.81252 0.0271,1.21396 -0.0827,0.4015 -0.25524,0.77895 -0.50445,1.10458 -0.23435,0.29933 -0.53384,0.54076 -0.87579,0.70632 -0.34187,0.16552 -0.71739,0.25061 -1.09731,0.24867 z M 86.06353,143.46523 c -3.164708,0 -5.9472,-2.94261 -6.205311,-6.55878 -0.127619,-1.85264 0.449655,-3.56582 1.618788,-4.8222 1.156515,-1.24372 2.787868,-1.92902 4.586523,-1.92902 1.798613,0 3.417469,0.68889 4.580259,1.93981 1.178134,1.26628 1.753707,2.97587 1.618736,4.81319 -0.257949,3.61532 -3.039671,6.557 -6.198995,6.557 z m 5.904929,2.82828 c -1.581892,-0.77335 -3.635008,-1.16011 -5.904006,-1.16011 -2.649418,0 -5.222388,0.69066 -7.245844,1.94433 -2.294172,1.4236 -3.837426,3.49655 -4.46064,5.99937 -0.09127,0.36004 -0.09978,0.73602 -0.0271,1.09978 0.07463,0.36392 0.230491,0.70602 0.455989,1.00102 0.213864,0.27458 0.48814,0.49668 0.801354,0.64894 0.313248,0.15198 0.657168,0.23049 1.005379,0.22894 h 9.982406 c 0.168618,0 0.331815,-0.0591 0.460982,-0.16707 0.12956,-0.10789 0.216574,-0.25794 0.246733,-0.4237 0.01163,-0.0568 0.02325,-0.11332 0.03864,-0.169 0.762596,-3.06315 2.549574,-5.65139 5.190025,-7.5381 0.09707,-0.07 0.175183,-0.1632 0.227012,-0.2711 0.05223,-0.1079 0.07617,-0.22701 0.07078,-0.34651 -0.0043,-0.1195 -0.04103,-0.23591 -0.102864,-0.33839 -0.06189,-0.10249 -0.148511,-0.18795 -0.251767,-0.24828 -0.141152,-0.0828 -0.303196,-0.16978 -0.487474,-0.25989 z"
       fill="#000000"
       id="path302"
       style="stroke-width:1.02323"
       inkscape:export-filename="msn.png"
       inkscape:export-xdpi="96"
       inkscape:export-ydpi="96" /></g></svg>
